<mxfile host="65bd71144e">
    <diagram id="yABSBON5_DmEMwgWKBGt" name="Page-1">
        <mxGraphModel dx="1154" dy="897" grid="1" gridSize="10" guides="1" tooltips="1" connect="1" arrows="1" fold="1" page="1" pageScale="1" pageWidth="850" pageHeight="1100" math="0" shadow="0">
            <root>
                <mxCell id="0"/>
                <mxCell id="1" parent="0"/>
                <mxCell id="75" style="edgeStyle=none;html=1;exitX=0.5;exitY=1;exitDx=0;exitDy=0;entryX=0;entryY=0;entryDx=126.56;entryDy=0;entryPerimeter=0;fontColor=#000000;" parent="1" source="59" target="14" edge="1">
                    <mxGeometry relative="1" as="geometry"/>
                </mxCell>
                <mxCell id="59" value="start" style="ellipse;whiteSpace=wrap;html=1;fontSize=18;fontColor=#000000;strokeColor=#000000;fillColor=#FFFFFF;" parent="1" vertex="1">
                    <mxGeometry x="157" y="54" width="120" height="50" as="geometry"/>
                </mxCell>
                <mxCell id="63" value="end" style="ellipse;whiteSpace=wrap;html=1;fontSize=18;fontColor=#000000;strokeColor=#000000;fillColor=#FFFFFF;" parent="1" vertex="1">
                    <mxGeometry x="175.44" y="652" width="120" height="50" as="geometry"/>
                </mxCell>
                <mxCell id="31" value="" style="group;fontColor=#000000;" parent="1" vertex="1" connectable="0">
                    <mxGeometry x="465" y="144" width="280" height="110" as="geometry"/>
                </mxCell>
                <mxCell id="13" value="#&lt;span style=&quot;font-family: &amp;#34;droid sans mono&amp;#34; , &amp;#34;monospace&amp;#34; , &amp;#34;monospace&amp;#34; , &amp;#34;droid sans fallback&amp;#34; , &amp;#34;droid sans mono&amp;#34; , &amp;#34;monospace&amp;#34; , monospace ; font-size: 16px ; color: rgb(34 , 129 , 167) ; font-weight: bold&quot;&gt;EnableLidar&lt;/span&gt;&lt;span&gt;&lt;br&gt;&lt;/span&gt;&lt;span style=&quot;font-family: &amp;#34;droid sans mono&amp;#34; , &amp;#34;monospace&amp;#34; , &amp;#34;monospace&amp;#34; , &amp;#34;droid sans fallback&amp;#34; , &amp;#34;droid sans mono&amp;#34; , &amp;#34;monospace&amp;#34; , monospace ; font-size: 16px ; color: rgb(119 , 119 , 119)&quot;&gt;(&lt;/span&gt;&lt;span style=&quot;font-family: &amp;#34;droid sans mono&amp;#34; , &amp;#34;monospace&amp;#34; , &amp;#34;monospace&amp;#34; , &amp;#34;droid sans fallback&amp;#34; , &amp;#34;droid sans mono&amp;#34; , &amp;#34;monospace&amp;#34; , monospace ; font-size: 16px ; color: rgb(60 , 175 , 166)&quot;&gt;bool&lt;/span&gt;&lt;span style=&quot;font-family: &amp;#34;droid sans mono&amp;#34; , &amp;#34;monospace&amp;#34; , &amp;#34;monospace&amp;#34; , &amp;#34;droid sans fallback&amp;#34; , &amp;#34;droid sans mono&amp;#34; , &amp;#34;monospace&amp;#34; , monospace ; font-size: 16px ; color: rgb(119 , 119 , 119)&quot;&gt;)&lt;/span&gt;" style="shape=cube;whiteSpace=wrap;html=1;boundedLbl=1;backgroundOutline=1;darkOpacity=0.05;darkOpacity2=0.1;labelBackgroundColor=none;size=10;" parent="31" vertex="1">
                    <mxGeometry width="280" height="70" as="geometry"/>
                </mxCell>
                <mxCell id="6" value="&lt;span style=&quot;font-family: &amp;quot;droid sans mono&amp;quot;, &amp;quot;monospace&amp;quot;, &amp;quot;monospace&amp;quot;, &amp;quot;droid sans fallback&amp;quot;, &amp;quot;droid sans mono&amp;quot;, &amp;quot;monospace&amp;quot;, monospace; font-size: 16px;&quot;&gt;withLidar&lt;/span&gt;&lt;span style=&quot;font-family: &amp;quot;droid sans mono&amp;quot;, &amp;quot;monospace&amp;quot;, &amp;quot;monospace&amp;quot;, &amp;quot;droid sans fallback&amp;quot;, &amp;quot;droid sans mono&amp;quot;, &amp;quot;monospace&amp;quot;, monospace; font-size: 16px;&quot;&gt; &lt;/span&gt;&lt;span style=&quot;font-family: &amp;quot;droid sans mono&amp;quot;, &amp;quot;monospace&amp;quot;, &amp;quot;monospace&amp;quot;, &amp;quot;droid sans fallback&amp;quot;, &amp;quot;droid sans mono&amp;quot;, &amp;quot;monospace&amp;quot;, monospace; font-size: 16px;&quot;&gt;=&lt;/span&gt;&lt;span style=&quot;font-family: &amp;quot;droid sans mono&amp;quot;, &amp;quot;monospace&amp;quot;, &amp;quot;monospace&amp;quot;, &amp;quot;droid sans fallback&amp;quot;, &amp;quot;droid sans mono&amp;quot;, &amp;quot;monospace&amp;quot;, monospace; font-size: 16px;&quot;&gt; withLidar&lt;/span&gt;" style="rounded=0;whiteSpace=wrap;html=1;labelBackgroundColor=none;fillColor=#E6E6E6;fontColor=#000000;fontStyle=0" parent="31" vertex="1">
                    <mxGeometry x="20.78125" y="70" width="246.09375" height="40" as="geometry"/>
                </mxCell>
                <mxCell id="73" value="" style="group" parent="1" vertex="1" connectable="0">
                    <mxGeometry x="90" y="144" width="263.12" height="110" as="geometry"/>
                </mxCell>
                <mxCell id="14" value="&lt;span style=&quot;font-family: &amp;#34;droid sans mono&amp;#34; , &amp;#34;monospace&amp;#34; , &amp;#34;monospace&amp;#34; , &amp;#34;droid sans fallback&amp;#34; , &amp;#34;droid sans mono&amp;#34; , &amp;#34;monospace&amp;#34; , monospace ; font-size: 16px ; color: rgb(34 , 129 , 167) ; font-weight: bold&quot;&gt;#DetectorInner&lt;/span&gt;&lt;span style=&quot;font-family: &amp;#34;droid sans mono&amp;#34; , &amp;#34;monospace&amp;#34; , &amp;#34;monospace&amp;#34; , &amp;#34;droid sans fallback&amp;#34; , &amp;#34;droid sans mono&amp;#34; , &amp;#34;monospace&amp;#34; , monospace ; font-size: 16px ; color: rgb(119 , 119 , 119)&quot;&gt;(&lt;/span&gt;&lt;span style=&quot;font-family: &amp;#34;droid sans mono&amp;#34; , &amp;#34;monospace&amp;#34; , &amp;#34;monospace&amp;#34; , &amp;#34;droid sans fallback&amp;#34; , &amp;#34;droid sans mono&amp;#34; , &amp;#34;monospace&amp;#34; , monospace ; font-size: 16px ; color: rgb(119 , 119 , 119)&quot;&gt;)&lt;/span&gt;" style="shape=cube;whiteSpace=wrap;html=1;boundedLbl=1;backgroundOutline=1;darkOpacity=0.05;darkOpacity2=0.1;labelBackgroundColor=none;size=10;" parent="73" vertex="1">
                    <mxGeometry width="263.12" height="70" as="geometry"/>
                </mxCell>
                <mxCell id="27" value="&lt;span style=&quot;font-family: &amp;#34;droid sans mono&amp;#34; , &amp;#34;monospace&amp;#34; , &amp;#34;monospace&amp;#34; , &amp;#34;droid sans fallback&amp;#34; , &amp;#34;droid sans mono&amp;#34; , &amp;#34;monospace&amp;#34; , monospace ; font-size: 16px&quot;&gt;withLidar&lt;/span&gt;&lt;span style=&quot;font-family: &amp;#34;droid sans mono&amp;#34; , &amp;#34;monospace&amp;#34; , &amp;#34;monospace&amp;#34; , &amp;#34;droid sans fallback&amp;#34; , &amp;#34;droid sans mono&amp;#34; , &amp;#34;monospace&amp;#34; , monospace ; font-size: 16px&quot;&gt;&amp;nbsp;&lt;/span&gt;&lt;span style=&quot;font-family: &amp;#34;droid sans mono&amp;#34; , &amp;#34;monospace&amp;#34; , &amp;#34;monospace&amp;#34; , &amp;#34;droid sans fallback&amp;#34; , &amp;#34;droid sans mono&amp;#34; , &amp;#34;monospace&amp;#34; , monospace ; font-size: 16px&quot;&gt;=&lt;/span&gt;&lt;span style=&quot;font-family: &amp;#34;droid sans mono&amp;#34; , &amp;#34;monospace&amp;#34; , &amp;#34;monospace&amp;#34; , &amp;#34;droid sans fallback&amp;#34; , &amp;#34;droid sans mono&amp;#34; , &amp;#34;monospace&amp;#34; , monospace ; font-size: 16px&quot;&gt;&amp;nbsp;false&lt;/span&gt;" style="rounded=0;whiteSpace=wrap;html=1;labelBackgroundColor=none;fillColor=#E6E6E6;fontColor=#000000;fontStyle=0" parent="73" vertex="1">
                    <mxGeometry x="23.060000000000002" y="70" width="226.94" height="40" as="geometry"/>
                </mxCell>
                <mxCell id="82" style="edgeStyle=orthogonalEdgeStyle;rounded=1;comic=0;sketch=0;jumpStyle=arc;html=1;exitX=0.5;exitY=1;exitDx=0;exitDy=0;entryX=0;entryY=0;entryDx=145;entryDy=0;entryPerimeter=0;shadow=0;" parent="1" source="6" target="79" edge="1">
                    <mxGeometry relative="1" as="geometry"/>
                </mxCell>
                <mxCell id="93" value="" style="group" parent="1" vertex="1" connectable="0">
                    <mxGeometry x="90" y="334" width="279.99999999999994" height="267" as="geometry"/>
                </mxCell>
                <mxCell id="88" value="&lt;span style=&quot;font-family: &amp;#34;droid sans mono&amp;#34; , &amp;#34;monospace&amp;#34; , &amp;#34;monospace&amp;#34; , &amp;#34;droid sans fallback&amp;#34; , &amp;#34;droid sans mono&amp;#34; , &amp;#34;monospace&amp;#34; , monospace ; font-size: 16px&quot;&gt;withLidar&lt;/span&gt;" style="rhombus;whiteSpace=wrap;html=1;labelBackgroundColor=none;fontColor=#000000;fillColor=#E6E6E6;" parent="93" vertex="1">
                    <mxGeometry x="30.439999999999998" y="70" width="230" height="40" as="geometry"/>
                </mxCell>
                <mxCell id="85" value="&lt;div style=&quot;color: rgb(32 , 21 , 21) ; font-family: &amp;#34;droid sans mono&amp;#34; , &amp;#34;monospace&amp;#34; , &amp;#34;monospace&amp;#34; , &amp;#34;droid sans fallback&amp;#34; , &amp;#34;droid sans mono&amp;#34; , &amp;#34;monospace&amp;#34; , monospace ; font-size: 16px ; line-height: 22px&quot;&gt;&lt;span style=&quot;color: rgb(122 , 62 , 157) ; font-weight: bold&quot;&gt;#&lt;/span&gt;&lt;span style=&quot;color: rgb(34 , 129 , 167) ; font-weight: bold&quot;&gt;PostProcess&lt;/span&gt;&lt;/div&gt;&lt;div style=&quot;color: rgb(32 , 21 , 21) ; font-family: &amp;#34;droid sans mono&amp;#34; , &amp;#34;monospace&amp;#34; , &amp;#34;monospace&amp;#34; , &amp;#34;droid sans fallback&amp;#34; , &amp;#34;droid sans mono&amp;#34; , &amp;#34;monospace&amp;#34; , monospace ; font-size: 16px ; line-height: 22px&quot;&gt;&lt;span style=&quot;color: rgb(119 , 119 , 119)&quot;&gt;(&lt;/span&gt;&lt;span style=&quot;color: rgb(122 , 62 , 157) ; font-weight: bold&quot;&gt;DataGroup&lt;/span&gt;&lt;span style=&quot;color: rgb(119 , 119 , 119)&quot;&gt;,&lt;/span&gt; &lt;span style=&quot;color: rgb(122 , 62 , 157) ; font-weight: bold&quot;&gt;DetectResult&lt;/span&gt; &lt;span style=&quot;color: rgb(60 , 175 , 166)&quot;&gt;&amp;amp;&lt;/span&gt;&lt;span style=&quot;color: rgb(119 , 119 , 119)&quot;&gt;)&lt;/span&gt;&lt;/div&gt;" style="shape=cube;whiteSpace=wrap;html=1;boundedLbl=1;backgroundOutline=1;darkOpacity=0.05;darkOpacity2=0.1;labelBackgroundColor=none;size=10;" parent="93" vertex="1">
                    <mxGeometry width="280" height="70" as="geometry"/>
                </mxCell>
                <mxCell id="86" value="&lt;div style=&quot;font-family: &amp;#34;droid sans mono&amp;#34; , &amp;#34;monospace&amp;#34; , &amp;#34;monospace&amp;#34; , &amp;#34;droid sans fallback&amp;#34; , &amp;#34;droid sans mono&amp;#34; , &amp;#34;monospace&amp;#34; , monospace ; font-size: 16px ; line-height: 22px&quot;&gt;&lt;span&gt;UpdateBoxByPoseOffset()&lt;/span&gt;&lt;/div&gt;" style="rounded=0;whiteSpace=wrap;html=1;labelBackgroundColor=none;fillColor=#E6E6E6;fontColor=default;fontStyle=0;" parent="93" vertex="1">
                    <mxGeometry x="22.391250000000014" y="147" width="246.09375" height="40" as="geometry"/>
                </mxCell>
                <mxCell id="90" value="Yes" style="edgeStyle=orthogonalEdgeStyle;rounded=1;comic=0;sketch=0;jumpStyle=arc;html=1;exitX=0.5;exitY=1;exitDx=0;exitDy=0;entryX=0.5;entryY=0;entryDx=0;entryDy=0;shadow=0;fontColor=#000000;" parent="93" source="88" target="86" edge="1">
                    <mxGeometry relative="1" as="geometry"/>
                </mxCell>
                <mxCell id="91" value="&lt;div style=&quot;font-family: &amp;#34;droid sans mono&amp;#34; , &amp;#34;monospace&amp;#34; , &amp;#34;monospace&amp;#34; , &amp;#34;droid sans fallback&amp;#34; , &amp;#34;droid sans mono&amp;#34; , &amp;#34;monospace&amp;#34; , monospace ; font-size: 16px ; line-height: 22px&quot;&gt;&lt;div style=&quot;font-family: &amp;#34;droid sans mono&amp;#34; , &amp;#34;monospace&amp;#34; , &amp;#34;monospace&amp;#34; , &amp;#34;droid sans fallback&amp;#34; , &amp;#34;droid sans mono&amp;#34; , &amp;#34;monospace&amp;#34; , monospace ; line-height: 22px&quot;&gt;&lt;span&gt;Display()&lt;/span&gt;&lt;/div&gt;&lt;/div&gt;" style="rounded=0;whiteSpace=wrap;html=1;labelBackgroundColor=none;fillColor=#E6E6E6;fontColor=default;fontStyle=0;" parent="93" vertex="1">
                    <mxGeometry x="22.391250000000014" y="187" width="246.09375" height="40" as="geometry"/>
                </mxCell>
                <mxCell id="92" value="&lt;div style=&quot;font-family: &amp;#34;droid sans mono&amp;#34; , &amp;#34;monospace&amp;#34; , &amp;#34;monospace&amp;#34; , &amp;#34;droid sans fallback&amp;#34; , &amp;#34;droid sans mono&amp;#34; , &amp;#34;monospace&amp;#34; , monospace ; font-size: 16px ; line-height: 22px&quot;&gt;&lt;div style=&quot;font-family: &amp;#34;droid sans mono&amp;#34; , &amp;#34;monospace&amp;#34; , &amp;#34;monospace&amp;#34; , &amp;#34;droid sans fallback&amp;#34; , &amp;#34;droid sans mono&amp;#34; , &amp;#34;monospace&amp;#34; , monospace ; line-height: 22px&quot;&gt;&lt;div style=&quot;font-family: &amp;#34;droid sans mono&amp;#34; , &amp;#34;monospace&amp;#34; , &amp;#34;monospace&amp;#34; , &amp;#34;droid sans fallback&amp;#34; , &amp;#34;droid sans mono&amp;#34; , &amp;#34;monospace&amp;#34; , monospace ; line-height: 22px&quot;&gt;&lt;span&gt;ShowLidar()&lt;/span&gt;&lt;/div&gt;&lt;/div&gt;&lt;/div&gt;" style="rounded=0;whiteSpace=wrap;html=1;labelBackgroundColor=none;fillColor=#E6E6E6;fontColor=default;fontStyle=0;" parent="93" vertex="1">
                    <mxGeometry x="22.391250000000014" y="227" width="246.09375" height="40" as="geometry"/>
                </mxCell>
                <mxCell id="95" value="" style="group" vertex="1" connectable="0" parent="1">
                    <mxGeometry x="463" y="334" width="300" height="126" as="geometry"/>
                </mxCell>
                <mxCell id="79" value="&lt;div style=&quot;color: rgb(32 , 21 , 21) ; font-family: &amp;#34;droid sans mono&amp;#34; , &amp;#34;monospace&amp;#34; , &amp;#34;monospace&amp;#34; , &amp;#34;droid sans fallback&amp;#34; , &amp;#34;droid sans mono&amp;#34; , &amp;#34;monospace&amp;#34; , monospace ; font-size: 16px ; line-height: 22px&quot;&gt;&lt;div style=&quot;font-family: &amp;#34;droid sans mono&amp;#34; , &amp;#34;monospace&amp;#34; , &amp;#34;monospace&amp;#34; , &amp;#34;droid sans fallback&amp;#34; , &amp;#34;droid sans mono&amp;#34; , &amp;#34;monospace&amp;#34; , monospace ; line-height: 22px&quot;&gt;&lt;span style=&quot;color: rgb(122 , 62 , 157) ; font-weight: bold&quot;&gt;#&lt;/span&gt;&lt;span style=&quot;color: rgb(34 , 129 , 167) ; font-weight: bold&quot;&gt;Init&lt;/span&gt;&lt;/div&gt;&lt;div style=&quot;font-family: &amp;#34;droid sans mono&amp;#34; , &amp;#34;monospace&amp;#34; , &amp;#34;monospace&amp;#34; , &amp;#34;droid sans fallback&amp;#34; , &amp;#34;droid sans mono&amp;#34; , &amp;#34;monospace&amp;#34; , monospace ; line-height: 22px&quot;&gt;&lt;span style=&quot;color: rgb(119 , 119 , 119)&quot;&gt;(&lt;/span&gt;&lt;span style=&quot;color: rgb(122 , 62 , 157) ; font-weight: bold&quot;&gt;psl&lt;/span&gt;&lt;span style=&quot;color: rgb(119 , 119 , 119)&quot;&gt;::&lt;/span&gt;&lt;span style=&quot;color: rgb(122 , 62 , 157) ; font-weight: bold&quot;&gt;DetectorParam&lt;/span&gt; &lt;span style=&quot;color: rgb(60 , 175 , 166)&quot;&gt;&amp;amp;&lt;/span&gt;&lt;span style=&quot;color: rgb(119 , 119 , 119)&quot;&gt;)&lt;/span&gt;&lt;/div&gt;&lt;/div&gt;" style="shape=cube;whiteSpace=wrap;html=1;boundedLbl=1;backgroundOutline=1;darkOpacity=0.05;darkOpacity2=0.1;labelBackgroundColor=none;size=10;container=0;" parent="95" vertex="1">
                    <mxGeometry width="300" height="70" as="geometry"/>
                </mxCell>
                <mxCell id="83" value="&lt;div style=&quot;font-family: &amp;#34;droid sans mono&amp;#34; , &amp;#34;monospace&amp;#34; , &amp;#34;monospace&amp;#34; , &amp;#34;droid sans fallback&amp;#34; , &amp;#34;droid sans mono&amp;#34; , &amp;#34;monospace&amp;#34; , monospace ; font-size: 16px ; line-height: 22px&quot;&gt;&lt;span&gt;instanceManager&lt;/span&gt;&lt;span&gt;.&lt;/span&gt;&lt;/div&gt;&lt;div style=&quot;font-family: &amp;#34;droid sans mono&amp;#34; , &amp;#34;monospace&amp;#34; , &amp;#34;monospace&amp;#34; , &amp;#34;droid sans fallback&amp;#34; , &amp;#34;droid sans mono&amp;#34; , &amp;#34;monospace&amp;#34; , monospace ; font-size: 16px ; line-height: 22px&quot;&gt;&lt;span&gt;EnableLidar&lt;/span&gt;&lt;span&gt;(&lt;/span&gt;&lt;span&gt;withLidar&lt;/span&gt;&lt;span&gt;)&lt;/span&gt;&lt;/div&gt;" style="rounded=0;html=1;labelBackgroundColor=none;fillColor=#E6E6E6;fontColor=#000000;fontStyle=0;whiteSpace=wrap;container=0;" parent="95" vertex="1">
                    <mxGeometry x="22.069999999999993" y="70" width="248.93" height="56" as="geometry"/>
                </mxCell>
                <mxCell id="96" style="edgeStyle=none;html=1;exitX=0;exitY=0;exitDx=263.12;exitDy=40;exitPerimeter=0;entryX=0;entryY=0.571;entryDx=0;entryDy=0;entryPerimeter=0;" edge="1" parent="1" source="14" target="13">
                    <mxGeometry relative="1" as="geometry"/>
                </mxCell>
                <mxCell id="97" style="edgeStyle=none;html=1;exitX=0;exitY=0;exitDx=0;exitDy=30;exitPerimeter=0;entryX=0.997;entryY=0.429;entryDx=0;entryDy=0;entryPerimeter=0;" edge="1" parent="1" source="79" target="85">
                    <mxGeometry relative="1" as="geometry"/>
                </mxCell>
                <mxCell id="98" style="edgeStyle=none;html=1;exitX=0.5;exitY=1;exitDx=0;exitDy=0;entryX=0.5;entryY=0;entryDx=0;entryDy=0;" edge="1" parent="1" source="92" target="63">
                    <mxGeometry relative="1" as="geometry"/>
                </mxCell>
            </root>
        </mxGraphModel>
    </diagram>
</mxfile>